<svg width="22" height="20" viewBox="0 0 22 20" fill="none" xmlns="http://www.w3.org/2000/svg">
<path d="M18.2142 0.0051203L18.0468 0H18.0202C17.2659 0 16.5583 0.302614 15.9454 0.768057C15.3325 1.2335 15.1528 1.63801 15.1528 1.63801L19.6587 6.04154C19.6587 6.04154 20.2347 5.74916 20.5604 5.33236C20.886 4.91557 21.2916 4.4066 21.2936 3.43219C21.2972 1.61497 19.9454 0.109576 18.2142 0.0051203ZM3.0794 0.0051203L3.24684 0H3.27347C4.0277 0 4.73534 0.302614 5.34824 0.768057C5.96115 1.2335 6.14088 1.63801 6.14088 1.63801L1.63494 6.04154C1.63494 6.04154 1.0589 5.74916 0.733246 5.33236C0.407589 4.91557 0.00205526 4.4066 7.11121e-06 3.43014C-0.00357716 1.61497 1.3482 0.109576 3.0794 0.0051203Z" fill="#807A7A"/>
<path d="M17.5747 16.4154C17.5742 16.4149 17.5739 16.4141 17.5739 16.4134C17.5739 16.4126 17.5742 16.4119 17.5747 16.4113C19.3003 14.3365 20.1195 11.4814 19.4027 8.45989C18.7043 5.51465 15.6817 2.53612 12.7288 1.87201C6.85775 0.551973 1.63855 5.00261 1.63855 10.6499C1.63649 12.756 2.3757 14.7956 3.72664 16.4113C3.72715 16.4119 3.72742 16.4126 3.72742 16.4134C3.72742 16.4141 3.72715 16.4149 3.72664 16.4154L1.27654 18.8425C1.27604 18.843 1.27576 18.8438 1.27576 18.8445C1.27576 18.8453 1.27604 18.846 1.27654 18.8466L2.45423 19.9992C2.45479 19.9997 2.45552 20 2.45628 20C2.45703 20 2.45776 19.9997 2.45832 19.9992L4.88692 17.5737C4.88748 17.5732 4.88821 17.5729 4.88897 17.5729C4.88972 17.5729 4.89045 17.5732 4.89102 17.5737C6.5079 18.9227 8.54693 19.6617 10.6527 19.6617C12.7585 19.6617 14.7975 18.9227 16.4144 17.5737H16.418L18.8394 19.9992C18.84 19.9997 18.8407 20 18.8415 20C18.8422 20 18.843 19.9997 18.8435 19.9992L20.0683 18.8425L17.5747 16.4154ZM11.4697 11.4691H5.73127V9.83574L5.73383 9.83317H9.83013V4.09579H11.4687L11.4697 11.4691Z" fill="#807A7A"/>
</svg>
