<svg width="35" height="36" viewBox="0 0 35 36" fill="none" xmlns="http://www.w3.org/2000/svg">
<path d="M17.2007 6.92008C19.6595 6.8808 22.0373 7.83214 23.8353 9.57447L28.678 4.6564C25.5711 1.63279 21.4582 -0.0251819 17.2007 0.0296377C14.0195 0.0288743 10.901 0.947169 8.19362 2.68183C5.48629 4.41649 3.29697 6.89912 1.8705 9.85208L7.41945 14.3263C8.09795 12.1837 9.40693 10.3164 11.1618 8.98758C12.9167 7.6588 15.0289 6.93564 17.2007 6.92008Z" fill="#E43E2B"/>
<path d="M33.6737 18.2476C33.6939 17.0225 33.572 15.7993 33.3107 14.6045H17.2001V21.219H26.6579C26.4785 22.3787 26.0751 23.4887 25.472 24.4823C24.8689 25.4759 24.0785 26.3326 23.1484 27.0008L28.5637 31.3568C30.2514 29.6645 31.5786 27.6235 32.4596 25.3655C33.3407 23.1075 33.756 20.6827 33.6787 18.2476H33.6737Z" fill="#3B7DED"/>
<path d="M7.43913 21.3756C7.06394 20.2411 6.87052 19.0503 6.86658 17.8507C6.87342 16.6531 7.05991 15.4638 7.41933 14.3258L1.87038 9.85156C0.666857 12.3331 0.0399628 15.073 0.0399628 17.8516C0.0399628 20.6301 0.666857 23.37 1.87038 25.8516L7.43913 21.3756Z" fill="#F0B501"/>
<path d="M17.2006 35.6727C21.3805 35.7954 25.4469 34.2507 28.5641 31.3561L23.1488 27.0001C21.393 28.2226 19.3136 28.8456 17.2006 28.7822C15.0307 28.7688 12.92 28.0462 11.1679 26.7168C9.41572 25.3874 8.11113 23.5188 7.43916 21.376L1.89021 25.8519C3.31284 28.8036 5.49858 31.2856 8.20264 33.0201C10.9067 34.7547 14.0223 35.6731 17.2006 35.6727Z" fill="#2BA24C"/>
</svg>
