<svg width="36" height="36" viewBox="0 0 36 36" fill="none" xmlns="http://www.w3.org/2000/svg">
<path d="M23.001 3.99854H7.00098C6.47054 3.99854 5.96184 4.20925 5.58676 4.58432C5.21169 4.95939 5.00098 5.4681 5.00098 5.99853V29.9985C5.00098 30.529 5.21169 31.0377 5.58676 31.4127C5.96184 31.7878 6.47054 31.9985 7.00098 31.9985H23.001C23.5314 31.9985 24.0401 31.7878 24.4152 31.4127C24.7903 31.0377 25.001 30.529 25.001 29.9985V23.9985H15.631C15.3658 23.9985 15.1114 23.8932 14.9239 23.7056C14.7363 23.5181 14.631 23.2638 14.631 22.9985C14.631 22.7333 14.7363 22.479 14.9239 22.2914C15.1114 22.1039 15.3658 21.9985 15.631 21.9985H25.001V5.99853C25.001 5.4681 24.7903 4.95939 24.4152 4.58432C24.0401 4.20925 23.5314 3.99854 23.001 3.99854Z" fill="#CA1B1B"/>
<path d="M28.161 17.281C27.9697 17.1172 27.7236 17.0316 27.4719 17.0413C27.2202 17.051 26.9815 17.1553 26.8034 17.3334C26.6253 17.5115 26.521 17.7503 26.5113 18.0019C26.5015 18.2536 26.5872 18.4997 26.751 18.691L30.131 22.001H25.001V24.001H30.131L26.751 27.461C26.6463 27.5506 26.5613 27.661 26.5013 27.785C26.4412 27.9091 26.4075 28.0442 26.4022 28.1819C26.3969 28.3197 26.4201 28.457 26.4703 28.5853C26.5206 28.7136 26.5969 28.8302 26.6943 28.9276C26.7918 29.0251 26.9083 29.1013 27.0367 29.1516C27.165 29.2019 27.3023 29.2251 27.44 29.2198C27.5777 29.2145 27.7129 29.1807 27.8369 29.1207C27.961 29.0607 28.0713 28.9757 28.161 28.871L34.001 23.071L28.161 17.281Z" fill="#CA1B1B"/>
</svg>
