<svg width="27" height="27" viewBox="0 0 27 27" fill="none" xmlns="http://www.w3.org/2000/svg">
<path d="M20.25 14.6226H14.625V20.2476C14.625 20.5459 14.5065 20.8321 14.2955 21.0431C14.0845 21.254 13.7984 21.3726 13.5 21.3726C13.2016 21.3726 12.9155 21.254 12.7045 21.0431C12.4935 20.8321 12.375 20.5459 12.375 20.2476V14.6226H6.75C6.45163 14.6226 6.16548 14.504 5.95451 14.2931C5.74353 14.0821 5.625 13.7959 5.625 13.4976C5.625 13.1992 5.74353 12.913 5.95451 12.7021C6.16548 12.4911 6.45163 12.3726 6.75 12.3726H12.375V6.74756C12.375 6.44919 12.4935 6.16304 12.7045 5.95206C12.9155 5.74108 13.2016 5.62256 13.5 5.62256C13.7984 5.62256 14.0845 5.74108 14.2955 5.95206C14.5065 6.16304 14.625 6.44919 14.625 6.74756V12.3726H20.25C20.5484 12.3726 20.8345 12.4911 21.0455 12.7021C21.2565 12.913 21.375 13.1992 21.375 13.4976C21.375 13.7959 21.2565 14.0821 21.0455 14.2931C20.8345 14.504 20.5484 14.6226 20.25 14.6226Z" fill="#2C2929"/>
</svg>
