<svg width="20" height="26" viewBox="0 0 20 26" fill="none" xmlns="http://www.w3.org/2000/svg">
<ellipse cx="10.0174" cy="6.7028" rx="5.81679" ry="5.86589" stroke="#807A7A" stroke-width="1.5" stroke-linecap="round" stroke-linejoin="round"/>
<path fill-rule="evenodd" clip-rule="evenodd" d="M0.790791 20.7271C0.789228 20.3147 0.880681 19.9074 1.05823 19.5359C1.61539 18.4122 3.1866 17.8166 4.49036 17.5469C5.43063 17.3446 6.38389 17.2094 7.34304 17.1424C9.11883 16.9851 10.9049 16.9851 12.6807 17.1424C13.6397 17.2102 14.5929 17.3454 15.5333 17.5469C16.8371 17.8166 18.4083 18.356 18.9655 19.5359C19.3225 20.2932 19.3225 21.1723 18.9655 21.9295C18.4083 23.1094 16.8371 23.6488 15.5333 23.9073C14.5942 24.118 13.6406 24.257 12.6807 24.3231C11.2353 24.4466 9.78322 24.4691 8.33479 24.3905C8.00049 24.3905 7.67733 24.3905 7.34304 24.3231C6.38672 24.2578 5.43677 24.1188 4.5015 23.9073C3.1866 23.6488 1.62654 23.1094 1.05823 21.9295C0.881588 21.5537 0.790226 21.143 0.790791 20.7271Z" stroke="#807A7A" stroke-width="1.5" stroke-linecap="round" stroke-linejoin="round"/>
</svg>
