<svg width="31" height="31" viewBox="0 0 31 31" fill="none" xmlns="http://www.w3.org/2000/svg">
<path d="M10.9609 30.03L10.3603 25.2252C10.035 25.1001 9.72822 24.9499 9.43993 24.7747C9.15164 24.5996 8.87036 24.4119 8.59608 24.2117L4.12912 26.0886L0 18.9564L3.86636 16.0285C3.84134 15.8533 3.82882 15.6842 3.82882 15.521V14.509C3.82882 14.3458 3.84134 14.1767 3.86636 14.0015L0 11.0736L4.12912 3.94144L8.59608 5.81831C8.87136 5.61811 9.15915 5.43042 9.45945 5.25525C9.75975 5.08007 10.06 4.92992 10.3603 4.8048L10.9609 0H19.2192L19.8198 4.8048C20.1451 4.92992 20.4519 5.08007 20.7402 5.25525C21.0285 5.43042 21.3098 5.61811 21.5841 5.81831L26.051 3.94144L30.1801 11.0736L26.3138 14.0015C26.3388 14.1767 26.3513 14.3458 26.3513 14.509V15.521C26.3513 15.6842 26.3263 15.8533 26.2762 16.0285L30.1426 18.9564L26.0135 26.0886L21.5841 24.2117C21.3088 24.4119 21.021 24.5996 20.7207 24.7747C20.4204 24.9499 20.1201 25.1001 19.8198 25.2252L19.2192 30.03H10.9609ZM15.1651 20.2702C16.6166 20.2702 17.8553 19.7572 18.8814 18.7312C19.9074 17.7052 20.4204 16.4664 20.4204 15.015C20.4204 13.5635 19.9074 12.3248 18.8814 11.2988C17.8553 10.2728 16.6166 9.75975 15.1651 9.75975C13.6887 9.75975 12.4434 10.2728 11.4294 11.2988C10.4154 12.3248 9.90889 13.5635 9.9099 15.015C9.9099 16.4664 10.4164 17.7052 11.4294 18.7312C12.4424 19.7572 13.6877 20.2702 15.1651 20.2702Z" fill="#807A7A"/>
</svg>
