<svg width="7" height="26" viewBox="0 0 7 26" fill="none" xmlns="http://www.w3.org/2000/svg">
<path d="M3.5 25.25C5.43299 25.25 7 23.683 7 21.75C7 19.817 5.43299 18.25 3.5 18.25C1.567 18.25 0 19.817 0 21.75C0 23.683 1.567 25.25 3.5 25.25Z" fill="#807A7A"/>
<path d="M3.5 16.5C5.43299 16.5 7 14.933 7 13C7 11.067 5.43299 9.5 3.5 9.5C1.567 9.5 0 11.067 0 13C0 14.933 1.567 16.5 3.5 16.5Z" fill="#807A7A"/>
<path d="M3.5 7.75C5.43299 7.75 7 6.18299 7 4.25C7 2.317 5.43299 0.75 3.5 0.75C1.567 0.75 0 2.317 0 4.25C0 6.18299 1.567 7.75 3.5 7.75Z" fill="#807A7A"/>
</svg>
