<svg width="96" height="105" viewBox="0 0 96 105" fill="none" xmlns="http://www.w3.org/2000/svg">
<path d="M35.4131 61.255C35.3663 64.9263 32.351 67.7076 26.3664 69.515C33.5774 74.7593 40.7888 78.955 47.9998 78.955C55.2108 78.955 62.4221 74.7593 69.6331 69.515C63.6893 67.7056 60.6738 65.0047 60.5865 61.4123C60.5865 60.7719 60.6285 46.7036 60.6557 40.5656C66.2929 33.2587 64.222 24.6923 62.4556 24.9058C60.2899 25.1698 41.5267 7.36436 37.9277 6.45143C34.3287 5.5385 25.1864 8.48575 23.6131 16.6966C22.0398 24.9074 21.3821 45.6038 27.3498 53.8666C29.0478 56.2179 31.7626 57.1312 35.4131 56.6199C35.4182 58.3384 35.4131 61.255 35.4131 61.255Z" fill="url(#paint0_linear_102_243)"/>
<path d="M35.4131 56.6201C44.0664 55.6368 49.5731 51.9001 49.5731 51.9001C49.5731 51.9001 44.8531 59.7668 35.4131 61.3401V56.6201Z" fill="#443129"/>
<path d="M63.5363 40.69C66.2464 34.1725 77.1063 20.8987 67.745 12.6387C64.5983 -2.70134 47.213 -1.00332 35.6096 2.53668C27.811 4.91595 21.9216 9.61668 20.663 6.07668C12.7963 12.6387 16.7359 19.0567 21.9216 20.8987C26.6282 22.5703 34.587 24.242 48.12 22.6687C50.5374 22.3874 50.0312 29.7911 51.3229 30.5916C53.2609 31.7924 54.765 24.242 60.0781 26.5092C65.3913 28.7763 62.2383 39.2886 56.535 39.2886C54.5683 39.2886 53.585 44.6957 58.895 47.2524C62.7496 49.1467 61.7753 44.925 63.5363 40.69Z" fill="white"/>
<path d="M89.2998 81.5212C93.0443 89.1349 95.1998 106.694 95.1998 106.694H0.799805C0.799805 106.694 2.95606 89.1329 6.6998 81.5212C10.4436 73.9094 32.3058 66.8494 32.3058 66.8494C36.5196 75.5 59.6456 75.5 63.6824 66.8467C63.6824 66.8467 85.5553 73.9074 89.2998 81.5212Z" fill="url(#paint1_linear_102_243)"/>
<mask id="mask0_102_243" style="mask-type:alpha" maskUnits="userSpaceOnUse" x="0" y="66" width="96" height="41">
<path d="M89.2998 81.5212C93.0443 89.1349 95.1998 106.694 95.1998 106.694H0.799805C0.799805 106.694 2.95606 89.1329 6.6998 81.5212C10.4436 73.9094 32.3058 66.8494 32.3058 66.8494C36.5196 75.5 59.6456 75.5 63.6824 66.8467C63.6824 66.8467 85.5553 73.9074 89.2998 81.5212Z" fill="url(#paint2_linear_102_243)"/>
</mask>
<g mask="url(#mask0_102_243)">
<path d="M-3.1333 98.7067V95.56H99.1334V98.7067H-3.1333ZM-3.1333 90.84V87.6933H99.1334V90.84H-3.1333ZM-3.1333 82.9733V79.8267H99.1334V82.9733H-3.1333Z" fill="#6E5C5A"/>
</g>
<defs>
<linearGradient id="paint0_linear_102_243" x1="46.081" y1="6.29175" x2="46.081" y2="78.955" gradientUnits="userSpaceOnUse">
<stop stop-color="#784832"/>
<stop offset="1" stop-color="#B57952"/>
</linearGradient>
<linearGradient id="paint1_linear_102_243" x1="47.9998" y1="66.8467" x2="47.9998" y2="106.694" gradientUnits="userSpaceOnUse">
<stop stop-color="#1D0024"/>
<stop offset="1" stop-color="#100014"/>
</linearGradient>
<linearGradient id="paint2_linear_102_243" x1="47.9998" y1="66.8467" x2="47.9998" y2="106.694" gradientUnits="userSpaceOnUse">
<stop stop-color="#1D0024"/>
<stop offset="1" stop-color="#100014"/>
</linearGradient>
</defs>
</svg>
