<svg width="25" height="23" viewBox="0 0 25 23" fill="none" xmlns="http://www.w3.org/2000/svg">
<path d="M14.529 0.0972628C14.6862 0.0184474 14.8618 -0.0134601 15.0358 0.00517699C15.2098 0.0238141 15.3752 0.0922461 15.5132 0.202673L23.9168 6.91059C24.0251 6.99694 24.1136 7.10674 24.1759 7.23216C24.2382 7.35758 24.2728 7.49555 24.2773 7.63625C24.2817 7.77696 24.2559 7.91694 24.2017 8.04625C24.1475 8.17556 24.0661 8.29102 23.9635 8.38441L15.5598 16.0506C15.4253 16.1733 15.259 16.2534 15.0811 16.2813C14.9032 16.3093 14.7212 16.2838 14.557 16.2081C14.3928 16.1324 14.2535 16.0095 14.1558 15.8544C14.058 15.6993 14.0061 15.5185 14.0061 15.3338V11.608C13.5654 11.6847 12.9902 11.8189 12.3179 12.0489C10.6876 12.6085 8.48209 13.7335 6.26353 16.0123C6.12778 16.1521 5.95327 16.2455 5.76384 16.2797C5.57441 16.3139 5.37931 16.2873 5.2052 16.2034C5.03109 16.1195 4.88648 15.9825 4.79112 15.8111C4.69576 15.6396 4.65431 15.4422 4.67243 15.2457C4.93948 12.2348 5.79479 10.0384 6.95823 8.45532C7.95681 7.08894 9.31384 6.0426 10.8706 5.43868C11.8747 5.04812 12.9333 4.82553 14.0061 4.77939V0.959709C14.0057 0.78011 14.0546 0.604024 14.147 0.451534C14.2395 0.299043 14.3718 0.176286 14.529 0.0972628ZM0 6.70935C0 5.4386 0.491879 4.2199 1.36743 3.32134C2.24298 2.42279 3.43048 1.91798 4.6687 1.91798H8.40366C8.6513 1.91798 8.8888 2.01894 9.06391 2.19865C9.23902 2.37837 9.3374 2.62211 9.3374 2.87626C9.3374 3.13041 9.23902 3.37415 9.06391 3.55386C8.8888 3.73357 8.6513 3.83453 8.40366 3.83453H4.6687C3.92577 3.83453 3.21327 4.13741 2.68794 4.67655C2.16261 5.21568 1.86748 5.9469 1.86748 6.70935V18.2086C1.86748 18.9711 2.16261 19.7023 2.68794 20.2414C3.21327 20.7806 3.92577 21.0835 4.6687 21.0835H15.8736C16.6165 21.0835 17.329 20.7806 17.8543 20.2414C18.3797 19.7023 18.6748 18.9711 18.6748 18.2086V16.2921C18.6748 16.0379 18.7732 15.7942 18.9483 15.6145C19.1234 15.4348 19.3609 15.3338 19.6085 15.3338C19.8562 15.3338 20.0937 15.4348 20.2688 15.6145C20.4439 15.7942 20.5423 16.0379 20.5423 16.2921V18.2086C20.5423 19.4794 20.0504 20.6981 19.1748 21.5966C18.2993 22.4952 17.1118 23 15.8736 23H4.6687C3.43048 23 2.24298 22.4952 1.36743 21.5966C0.491879 20.6981 0 19.4794 0 18.2086V6.70935Z" fill="#E66C6C"/>
</svg>
