<svg width="23" height="22" viewBox="0 0 23 22" fill="none" xmlns="http://www.w3.org/2000/svg">
<path d="M15.2392 0.8468C15.2392 0.697005 15.1995 0.549885 15.1241 0.420452C15.0487 0.29102 14.9403 0.183911 14.81 0.110056C14.6797 0.0362012 14.5321 -0.0017546 14.3823 6.22958e-05C14.2325 0.00187919 14.0859 0.0434037 13.9574 0.120398L5.69269 5.07652H2.53987C1.86625 5.07652 1.22023 5.34412 0.74391 5.82043C0.267592 6.29675 0 6.94278 0 7.61639L0 14.3843C0 15.7897 1.13786 16.9242 2.53987 16.9242H5.69269L13.9557 21.8786C14.0842 21.956 14.231 21.9979 14.3811 21.9999C14.5311 22.002 14.679 21.9641 14.8096 21.8902C14.9402 21.8163 15.0488 21.709 15.1242 21.5793C15.1997 21.4496 15.2394 21.3022 15.2392 21.1522V0.8468ZM20.3189 5.07991V16.9326H22.0122V5.07991H20.3189ZM16.9324 8.4664V13.5461H18.6257V8.4664H16.9324Z" fill="#807A7A"/>
</svg>
